<?xml version="1.0" encoding="UTF-8"?>
<svg width="187" height="32" viewBox="0 0 187 32" fill="none" 
    xmlns="http://www.w3.org/2000/svg">
    <style>.letter {
			fill: #FFF;
		}</style>
    <path class="letter letter-s" d="M169.448 18.04C164.17 16.1806 162.91 15.1309 162.91 13.7813C162.91 11.9818 164.44 10.9021 167.064 10.9021C170.753 10.9021 173.587 12.5066 173.992 14.8609L174.007 14.9809C174.037 15.1609 174.217 15.2808 174.396 15.2508L175.401 15.0709C175.581 15.0409 175.701 14.8609 175.671 14.681L174.756 9.52248C174.726 9.34253 174.546 9.22256 174.366 9.25255L173.362 9.4325C173.182 9.46249 173.062 9.64244 173.092 9.82239L173.122 9.97235C171.607 9.19257 169.823 8.71271 167.544 8.71271C162.325 8.71271 159.326 11.5169 159.326 15.1159C159.326 18.19 161.066 20.2894 165.654 21.9089C170.648 23.6784 172.777 24.7431 172.777 26.7525C172.777 28.3121 171.232 29.4967 168.458 29.4967C164.694 29.4967 162.28 28.0572 161.021 25.013C161.021 24.8331 160.871 24.6831 160.691 24.6831H159.671C159.491 24.6831 159.326 24.8331 159.326 25.028V31.1163C159.326 31.2962 159.476 31.4612 159.671 31.4612H160.691C160.871 31.4612 161.036 31.3112 161.036 31.1163V30.3665C163.705 31.3262 165.999 31.7011 168.173 31.7011C173.632 31.7011 176.496 29.1518 176.496 25.7028C176.481 22.2388 174.426 19.8095 169.448 18.04Z" fill="#465059"></path>
    <path class="letter letter-c " d="M155.757 24.6829H154.738C154.558 24.6829 154.393 24.8329 154.393 25.0278C153.358 28.1319 150.494 29.5115 146.46 29.5115C141.887 29.5115 138.138 26.2425 138.138 20.2142C138.138 14.6358 141.842 10.9169 146.295 10.9169C150.269 10.9169 152.668 12.4164 153.898 15.0857C153.958 15.2206 154.108 15.3106 154.258 15.2806L154.333 15.2656L155.337 15.0857C155.517 15.0557 155.637 14.8757 155.607 14.6958L154.693 9.53725C154.663 9.3573 154.483 9.23733 154.303 9.26732L153.298 9.44727C153.118 9.47726 152.998 9.65721 153.028 9.83716L153.133 10.422C151.364 9.29731 149.129 8.72748 146.295 8.72748C138.737 8.72748 133.069 12.2665 133.069 20.2142C133.069 27.727 138.633 31.7009 146.415 31.7009C150.899 31.7009 154.947 29.6915 156.087 26.1825V25.0278V25.0128C156.087 24.8179 155.937 24.6829 155.757 24.6829Z" fill="#465059"></path>
    <path class="letter letter-v" d="M107.877 9.22217H100.784C100.604 9.22217 100.439 9.37212 100.439 9.56707V10.5868C100.439 10.7667 100.589 10.9317 100.784 10.9317H101.099C102.029 10.9317 102.493 11.6815 102.104 12.6262L97.44 24.1579L91.3219 11.6215C90.6171 10.1669 89.1476 9.25216 87.5281 9.25216H82.7745C82.5946 9.25216 82.4297 9.40212 82.4297 9.59706V10.6168C82.4297 10.7967 82.5796 10.9617 82.7745 10.9617H83.6743C84.604 10.9617 85.7286 11.6965 86.1935 12.6562L95.2207 31.1009H97.2001H97.365L104.848 12.5962C105.238 11.6215 106.302 10.9017 107.232 10.9017H107.877C108.057 10.9017 108.222 10.7517 108.222 10.5568V9.53708C108.222 9.37212 108.072 9.22217 107.877 9.22217Z" fill="#465059"></path>
    <path class="letter  letter-cr" d="M182.929 8.71271C180.784 8.71271 179.045 10.4522 179.045 12.5966C179.045 14.741 180.784 16.4805 182.929 16.4805C185.073 16.4805 186.813 14.741 186.813 12.5966C186.827 10.4522 185.088 8.71271 182.929 8.71271ZM182.929 15.6407C181.249 15.6407 179.885 14.2761 179.885 12.5966C179.885 10.9171 181.249 9.55247 182.929 9.55247C184.608 9.55247 185.973 10.9171 185.973 12.5966C185.973 14.2761 184.608 15.6407 182.929 15.6407Z" fill="#465059"></path>
    <path class="letter letter-cr" d="M184.504 11.907C184.504 11.1272 183.949 10.6624 183.184 10.6624H182.179H181.415V14.3663H182.179V13.1366H182.764L183.859 14.3663H184.789L183.649 13.0767C184.159 12.9267 184.504 12.5218 184.504 11.907ZM183.184 12.4618H182.179V11.3372H183.184C183.499 11.3372 183.754 11.5921 183.754 11.907C183.754 12.2069 183.499 12.4618 183.184 12.4618Z" fill="#465059"></path>
    <path class="letter letter-e " d="M119.813 10.902H120.743H126.201C127.131 10.902 128.03 11.6517 128.195 12.5965L128.615 14.9958C128.645 15.1757 128.825 15.2957 129.005 15.2657L130.01 15.0858C130.19 15.0558 130.31 14.8758 130.28 14.6959L129.365 9.47736C129.335 9.31241 129.2 9.19244 129.035 9.19244H120.743H118.118H113.065H110.786C110.606 9.19244 110.441 9.3424 110.441 9.53734V10.5571C110.441 10.737 110.591 10.902 110.786 10.902H111.371C112.3 10.902 113.065 11.6517 113.065 12.5965V27.8021C113.065 28.7318 112.315 29.4966 111.371 29.4966H110.786C110.606 29.4966 110.441 29.6466 110.441 29.8415V30.8612C110.441 31.0412 110.591 31.2061 110.786 31.2061H113.065H117.624H118.133H120.758H129.05C129.215 31.2061 129.35 31.0862 129.38 30.9212L130.295 25.7027C130.325 25.5228 130.205 25.3428 130.025 25.3128L129.02 25.1329C128.84 25.1029 128.66 25.2228 128.63 25.4028L128.21 27.8021C128.03 28.7468 127.146 29.4966 126.216 29.4966H120.758H119.813C118.883 29.4966 118.118 28.7468 118.118 27.8021V20.7091H122.752C123.682 20.7091 124.447 21.4589 124.447 22.4037V22.4936C124.447 22.6736 124.596 22.8385 124.791 22.8385H125.136C125.316 22.8385 125.481 22.6886 125.481 22.4936V17.2451C125.481 17.0652 125.331 16.9002 125.136 16.9002H124.791C124.611 16.9002 124.447 17.0502 124.447 17.2451V17.3351C124.447 18.2648 123.697 19.0296 122.752 19.0296H118.118V12.5965C118.133 11.6667 118.883 10.902 119.813 10.902Z" fill="#465059"></path>
    <path class="letter letter-i" d="M9.97192 29.4966H9.3871C8.45739 29.4966 7.69262 28.7469 7.69262 27.8021V9.55236C7.69262 9.37241 7.54267 9.20746 7.34773 9.20746H2.62419H0.344893C0.164949 9.20746 0 9.35742 0 9.55236V10.5721C0 10.752 0.149954 10.917 0.344893 10.917H0.929713C1.85943 10.917 2.62419 11.6668 2.62419 12.6115V27.8171C2.62419 28.7469 1.87442 29.5116 0.929713 29.5116H0.344893C0.164949 29.5116 0 29.6616 0 29.8565V30.8762C0 31.0562 0.149954 31.2211 0.344893 31.2211H2.62419H7.69262H9.97192C10.1519 31.2211 10.3168 31.0712 10.3168 30.8762V29.8565C10.3018 29.6466 10.1519 29.4966 9.97192 29.4966Z" fill="#ED2043"></path>
    <path class="letter letter-n" d="M54.1333 9.22245H51.854H49.3198H47.0405C46.8606 9.22245 46.6956 9.37241 46.6956 9.56735V10.5871C46.6956 10.767 46.8456 10.932 47.0405 10.932H47.6403C48.54 10.932 49.2598 11.6218 49.3198 12.5065V26.9174L32.8699 10.4521C32.0751 9.65733 31.0104 9.20746 29.8858 9.20746H24.4725L45.2261 29.9465C46.0208 30.7413 47.0855 31.1762 48.2101 31.1762H49.3198H49.6647H51.854H54.1333C54.3132 31.1762 54.4782 31.0262 54.4782 30.8313V29.8115C54.4782 29.6316 54.3282 29.4666 54.1333 29.4666H53.5485C52.6188 29.4666 51.854 28.7169 51.854 27.7721V29.3917V12.5665C51.854 11.6368 52.6038 10.872 53.5485 10.872H54.1333C54.3132 10.872 54.4782 10.722 54.4782 10.5271V9.50737C54.4782 9.37241 54.3132 9.22245 54.1333 9.22245Z" fill="#ED2043"></path>
    <path class="letter letter-n" d="M19.0443 9.22229H17.9797H17.5898H15.4454H13.1661C12.9862 9.22229 12.8212 9.37225 12.8212 9.56719V10.5869C12.8212 10.7668 12.9712 10.9318 13.1661 10.9318H13.751C14.6807 10.9318 15.4454 11.6816 15.4454 12.6263V27.832C15.4454 28.7617 14.6957 29.5265 13.751 29.5265H13.1661C12.9862 29.5265 12.8212 29.6764 12.8212 29.8714V30.8911C12.8212 31.071 12.9712 31.236 13.1661 31.236H15.4454H17.9797H20.259C20.4389 31.236 20.6038 31.086 20.6038 30.8911V29.8714C20.6038 29.6914 20.4539 29.5265 20.259 29.5265H19.6741C18.7444 29.5265 17.9797 28.7767 17.9797 27.832V13.571L34.3096 29.9014C35.1044 30.6961 36.169 31.146 37.2937 31.146H42.707L22.0134 10.4519C21.2336 9.65716 20.154 9.22229 19.0443 9.22229Z" fill="#ED2043"></path>
    <path class="letter letter-i" d="M5.15832 6.958C7.07968 6.958 8.63725 5.4004 8.63725 3.479C8.63725 1.5576 7.07968 0 5.15832 0C3.23696 0 1.67939 1.5576 1.67939 3.479C1.67939 5.4004 3.23696 6.958 5.15832 6.958Z" fill="#ED2043"></path>
    <path class="letter letter-o" d="M69.5333 8.71204C61.9906 8.71204 56.0224 12.491 56.0224 20.1987C56.0224 27.9065 62.4105 31.6854 69.5333 31.6854C76.6561 31.6854 83.0441 27.9065 83.0441 20.1987C83.0441 12.491 77.0759 8.71204 69.5333 8.71204ZM69.5333 29.4961C65.1546 29.4961 61.0909 26.227 61.0909 20.1987C61.0909 14.1705 65.1696 10.9014 69.5333 10.9014C73.8969 10.9014 77.9756 14.1705 77.9756 20.1987C77.9756 26.227 73.9119 29.4961 69.5333 29.4961Z" fill="#ED2043"></path>
</svg>